<?xml version="1.0" encoding="UTF-8" standalone="no"?>
<!-- Created with Inkscape (http://www.inkscape.org/) -->

<svg
   xmlns:dc="http://purl.org/dc/elements/1.1/"
   xmlns:cc="http://creativecommons.org/ns#"
   xmlns:rdf="http://www.w3.org/1999/02/22-rdf-syntax-ns#"
   xmlns:svg="http://www.w3.org/2000/svg"
   xmlns="http://www.w3.org/2000/svg"
   xmlns:sodipodi="http://sodipodi.sourceforge.net/DTD/sodipodi-0.dtd"
   xmlns:inkscape="http://www.inkscape.org/namespaces/inkscape"
   width="132.87987mm"
   height="98.304092mm"
   viewBox="0 0 470.83418 348.32163"
   id="svg2"
   version="1.1"
   inkscape:version="0.92.2 2405546, 2018-03-11"
   sodipodi:docname="logo-inkscape.svg">
  <defs
     id="defs4" />
  <sodipodi:namedview
     id="base"
     pagecolor="#ffffff"
     bordercolor="#666666"
     borderopacity="1.0"
     inkscape:pageopacity="0.0"
     inkscape:pageshadow="2"
     inkscape:zoom="1.4142136"
     inkscape:cx="453.51221"
     inkscape:cy="-102.06827"
     inkscape:document-units="px"
     inkscape:current-layer="layer1"
     showgrid="false"
     inkscape:window-width="1366"
     inkscape:window-height="746"
     inkscape:window-x="0"
     inkscape:window-y="22"
     inkscape:window-maximized="0"
     showguides="true"
     inkscape:guide-bbox="true"
     fit-margin-top="0"
     fit-margin-left="0"
     fit-margin-right="0"
     fit-margin-bottom="0">
    <sodipodi:guide
       position="163.52018,66.814701"
       orientation="0,1"
       id="guide850"
       inkscape:locked="false" />
    <sodipodi:guide
       position="0,-1.291238"
       orientation="1,0"
       id="guide852"
       inkscape:locked="false" />
    <sodipodi:guide
       position="0,-0.054946298"
       orientation="0,1"
       id="guide854"
       inkscape:locked="false" />
    <sodipodi:guide
       position="470.8411,66.990971"
       orientation="1,0"
       id="guide858"
       inkscape:locked="false" />
  </sodipodi:namedview>
  <metadata
     id="metadata7">
    <rdf:RDF>
      <cc:Work
         rdf:about="">
        <dc:format>image/svg+xml</dc:format>
        <dc:type
           rdf:resource="http://purl.org/dc/dcmitype/StillImage" />
        <dc:title />
      </cc:Work>
    </rdf:RDF>
  </metadata>
  <g
     inkscape:label="Ebene 1"
     inkscape:groupmode="layer"
     id="layer1"
     transform="translate(-226.93645,-404.35018)">
    <g
       style="font-style:normal;font-variant:normal;font-weight:bold;font-stretch:normal;font-size:188px;line-height:0%;font-family:Sans;-inkscape-font-specification:'Sans Bold';letter-spacing:0px;word-spacing:0px;fill:#ffffff;fill-opacity:1;stroke:none"
       id="text3056"
       transform="matrix(1.25,0,0,1.25,-1109.1798,118.48225)" />
    <path
       style="fill:#000000;stroke:none"
       inkscape:connector-curvature="0"
       id="path50-7"
       d="m 471.64504,489.98099 c -1.82335,5.97275 -2.04581,5.91012 -4.48116,22.45572 -0.75198,0.72413 -1.28115,0.47347 -1.05834,-0.47346 0.1114,-0.36207 0.0279,-0.86339 -0.16711,-1.08619 -0.2228,-0.25066 -0.27851,-0.77983 -0.1671,-1.4204 0.13925,-0.69628 0.0836,-1.1976 -0.25066,-1.67106 -1.00264,-1.55966 -1.55966,-0.50133 -1.64321,3.23071 0,0 0.0444,3.00965 -1.16974,6.9349 -0.27851,0.55702 -0.41777,1.3647 -0.33422,2.11668 -0.16628,1.57718 0.50136,3.20287 0.50136,3.20287 v 3.09146 c 0,2.70155 -0.0557,3.06361 -0.44561,2.92436 -0.25066,-0.0836 -0.55702,-0.16711 -0.69628,-0.16711 -0.41777,0 -0.89123,-1.44825 -0.83553,-2.56229 0.0836,-1.33685 -0.38991,-2.17238 -1.19759,-2.17238 -0.55702,0 -0.69628,0.16711 -0.86339,1.08619 -0.0836,0.58487 -0.0836,1.5318 0,2.08882 0.16711,0.83554 0.11141,1.00264 -0.27851,1.00264 -0.38991,0 -0.44561,0.13926 -0.2785,0.75198 0.30636,1.309 0.50131,6.40573 0.2785,8.60596 -0.2228,2.31164 -0.50131,2.7294 -3.20286,4.84608 -3.56493,2.75725 -8.04894,7.71473 -10.66694,11.69742 -17.8333,40.11735 -11.52594,23.31729 -18.46527,59.93539 0,0 -1.63927,7.0886 -2.81295,12.05949 -0.22505,6.41597 0.13925,8.04889 0.13925,8.04889 -0.0529,1.90139 -0.0729,3.42742 0.0557,6.15508 0.0289,1.54651 -0.53603,2.76226 0.19862,3.79592 -7.34459,-0.16705 -16.54839,-0.2122 -25.5152,-0.17529 h -4.03839 l -1.1976,-1.81032 c -0.66842,-1.00263 -1.39255,-1.83816 -1.58751,-1.89386 -0.2228,-0.0557 -0.66842,0.38991 -1.00263,0.97478 -0.36206,0.58487 -1.05834,1.50396 -1.58751,2.06098 l -0.94694,1.00263 -3.03576,0.0279 c -2.36733,0.0557 -3.06361,-0.0279 -3.06361,-0.30636 0,-0.19496 0.13926,-0.50132 0.30636,-0.66843 0.25066,-0.25066 0.22281,-0.58487 -0.13925,-1.28114 -0.66843,-1.4204 -0.64058,-7.29697 0.0279,-8.04895 0.41776,-0.47346 0.41776,-0.64057 0.1114,-1.4204 -0.19496,-0.50132 -0.47347,-1.4761 -0.58487,-2.20023 -0.13926,-0.72413 -0.66842,-2.11667 -1.19759,-3.06361 -0.89124,-1.61536 -1.00264,-2.03312 -1.2533,-5.23599 -0.16711,-2.28378 -0.16711,-3.70419 0.0279,-4.0941 0.36206,-0.80768 -0.36207,-1.58751 -1.22545,-1.33685 -0.55702,0.19496 -0.61272,0.52917 -0.25066,1.67106 0.27851,0.80768 -0.38991,6.37788 -1.00263,8.2996 -0.36207,1.1976 -0.66843,2.42304 -0.66843,2.72941 0,0.2785 -0.19495,0.52917 -0.41776,0.52917 -0.50132,0 -0.55703,0.72412 -0.0557,0.91908 0.19495,0.0835 0.13925,0.22281 -0.22281,0.36206 -0.30636,0.1114 -0.64058,0.33421 -0.75198,0.50132 -0.33421,0.47346 -0.25066,1.4204 0.1114,1.78246 0.38992,0.38992 0.61273,3.89915 0.27851,4.65112 -0.80768,1.72677 -1.28114,6.32218 -0.91908,8.49456 0.13925,0.83553 0.16711,2.28379 0.0557,3.20287 -0.1671,1.5318 -0.22281,1.61536 -0.52917,1.03049 -0.19496,-0.33421 -0.50131,-0.61272 -0.66842,-0.61272 -0.47347,0 -1.03049,0.89123 -1.05834,1.69891 0,0.38991 -0.27851,1.00263 -0.61272,1.33685 -0.50132,0.55701 -0.52917,0.75197 -0.25066,1.19759 0.25066,0.41776 0.25066,0.61272 -0.13926,0.97478 -0.38991,0.38992 -0.44561,0.83554 -0.27851,2.75725 0.13926,2.03313 0.11141,2.31164 -0.30636,2.4509 -0.27851,0.0835 -4.48401,0.2228 -9.35794,0.33421 l -8.82877,0.19495 0.0557,-4.62326 0.0836,-4.62327 -0.89123,-0.80768 c -1.03049,-0.97479 -1.4761,-2.25594 -1.67106,-4.98533 -0.13925,-1.75462 -0.22281,-2.03313 -0.66842,-2.03313 -0.41777,0 -0.52917,0.22281 -0.52917,1.03049 0,0.58487 -0.13926,1.50395 -0.27851,2.03312 -0.13926,0.52917 -0.41777,1.55966 -0.58488,2.31164 -0.19495,0.72412 -0.47346,1.309 -0.64057,1.309 -0.1671,0 -0.55702,0.36206 -0.86338,0.77982 -0.50132,0.66843 -0.55702,1.1976 -0.55702,5.26385 v 4.53971 h -0.69628 c -0.38991,0 -3.87129,0.13926 -7.77043,0.27851 -4.28906,0.19496 -7.18556,0.19496 -7.35267,0.0279 -0.13925,-0.13926 -0.30636,-1.2533 -0.38991,-2.50659 -0.11141,-1.64321 -0.27851,-2.25593 -0.52917,-2.25593 -0.27851,0 -0.38991,0.47346 -0.38991,1.72676 0,3.00791 -0.0557,3.11931 -4.45617,9.49719 -1.50395,2.14453 -1.5318,2.17238 -2.64584,2.08883 l -1.11404,-0.0835 0.0557,-2.31164 c -0.7736,-2.82595 -0.46298,-4.68937 -0.0557,-7.29696 2.34317,-9.77087 0.13374,-26.86429 -3.73195,-32.08437 -0.77983,-0.94694 -1.61536,-2.39519 -1.97742,-3.39783 -0.94694,-2.67369 -1.67107,-5.26384 -1.67107,-5.93226 0,-0.36207 -0.1671,-0.64058 -0.38991,-0.64058 -0.22281,0 -0.47347,-0.2228 -0.55702,-0.50132 -2.13262,-6.50649 -3.35214,-14.23719 -3.20287,-18.82728 0.0557,-1.08619 -0.0279,-2.7851 -0.1671,-3.73204 -1.58239,-4.63423 -6.5528,-13.12247 -7.17101,-19.29295 -4.07772,-2.21125 -3.78376,6.942 -6.47907,12.18644 0.38992,0.72413 -0.99956,4.46067 -1.44517,5.519 -0.16711,0.44562 -0.25066,0.30637 -0.36207,-0.69627 -0.1114,-1.03049 -0.25066,-1.28115 -0.75197,-1.33685 -0.47347,-0.0557 -0.66843,0.0835 -0.75198,0.55702 -0.55702,2.64585 -0.66843,3.64849 -0.52917,5.15244 -0.47743,2.33747 0.39395,4.12382 -0.16711,6.48929 -0.52917,2.20023 -2.95221,10.55553 -3.36997,11.55817 -0.13926,0.30636 -0.38992,1.05834 -0.58487,1.67106 -0.75198,2.45089 -1.19759,3.50923 -1.81032,4.37261 -0.36206,0.47346 -0.66842,1.03049 -0.66842,1.19759 -4.76601,12.48315 -9.26384,22.26284 -7.24126,37.04185 0.30635,1.83817 0.55701,4.31691 0.55701,5.48665 1.2045,-0.27317 1.72165,6.26974 1.69891,9.21869 -0.0278,1.33685 0.11141,2.70155 0.25067,3.00791 0.2228,0.36206 0.2228,0.52917 0,0.52917 -0.19496,0 -0.25067,1.00263 -0.19496,2.8965 0.0836,2.39519 0.0279,2.98006 -0.33421,3.28642 -0.25066,0.19496 -0.66843,0.33421 -0.91909,0.27851 -0.41776,-0.0836 -0.44561,-0.50132 -0.36206,-3.84344 l 0.0836,-3.73203 h -1.50395 c -1.309,0 -1.50396,-0.0557 -1.50396,-0.55702 0,-0.47347 -0.19495,-0.55702 -1.22544,-0.55702 -5.54753,2.76067 -8.98369,-3.61743 -14.09262,-3.78774 0,0.25066 -0.19495,0.44561 -0.41776,0.44561 -0.27851,0 -0.41776,0.30637 -0.41776,0.97479 0,0.91908 -0.0279,0.94694 -0.89124,0.80768 -0.50132,-0.0836 -1.72676,-0.38991 -2.7294,-0.66842 -1.00263,-0.27852 -2.42304,-0.64058 -3.14716,-0.83554 -3.31017,-1.41035 -2.33192,-6.65891 -2.53445,-9.74785 -0.0557,-0.22281 -0.0836,-1.08619 -0.11141,-1.89387 -0.0557,-1.4204 -0.0836,-1.44825 -0.89123,-1.44825 -0.75197,0 -0.83553,0.0836 -0.86338,0.89123 0,0.89123 -0.0279,0.86338 -0.72413,-0.61272 -0.86338,-1.86602 -0.66842,-1.67107 -1.86602,-1.86602 -3.33657,1.84797 -2.87724,1.74558 -3.24109,4.67095 -0.65761,3.25362 -0.49781,4.87844 -1.63283,7.44424 -2.51708,7.77523 -2.81654,8.87489 -4.80675,14.99178 -0.22511,0.31829 -8.35161,0.31829 -8.35161,0.31829 v 66.8147 l 234.66379,-0.46559 236.17731,0.46559 v -66.8147 c -13.77054,-5.59839 -12.07434,-7.4763 -15.70868,-22.82984 -0.22279,-1.00264 -0.64055,-2.33949 -0.89122,-2.98006 -1.70131,-8.44755 -9.85746,-23.97419 -19.69082,-7.01846 -4.52669,1.885 1.06368,10.39022 -13.28496,14.87239 -0.25067,0.19496 -32.05653,1.05834 -32.3629,0.86338 -0.72412,-0.47346 0.47346,-17.60184 1.4761,-20.88826 0.13928,-0.47346 0.25067,-1.25329 0.25067,-1.72676 0,-0.50132 0.11139,-0.89123 0.27852,-0.89123 0.36206,0 0.30636,-2.70155 -0.0836,-3.81559 2.67281,-20.43701 -10.64397,-29.42704 -12.17119,-51.88644 0,-0.47347 0.13924,-0.83553 0.27851,-0.83553 -0.34032,-10.73293 -2.01864,-11.62068 -1.67122,-13.50775 0.19931,-3.5299 1.51972,-4.58025 0.36206,-7.01845 -2.30082,-10.00399 -4.26438,-7.64888 -5.27202,-24.55888 -0.24655,-16.47239 -3.96386,-10.28602 -4.1975,-1.09065 4.33372,10.98211 -5.6871,23.30606 -2.86844,27.93331 -0.36206,0.22281 -0.36206,1.53181 0,1.53181 0.36206,0 0.36206,4.28905 -0.0277,5.6259 -1.29756,4.81104 -1.92171,10.24918 -1.92171,10.24918 -7.46427,34.57225 -17.30351,28.19719 -12.81149,61.96851 6.0528,21.82396 0.16395,-13.0514 3.78139,14.00906 0.19497,0.0836 0.22282,0.58487 0.11139,1.4761 -0.11139,0.89123 -0.0557,1.50396 0.13928,1.75461 0.27852,0.33422 0.25063,0.55703 -0.11143,1.11404 -0.41776,0.61273 -0.41776,0.83554 -0.0835,1.72677 0.27851,0.83553 0.27851,1.05834 0.0277,1.14189 -0.38991,0.13925 -0.5013,1.92172 -0.13924,2.14453 0.13924,0.0835 -0.49495,1.03048 -0.52283,2.14453 -0.0835,2.14453 0.43928,2.47874 -0.86972,2.47874 -0.77983,0 -0.77983,-0.0278 -0.83552,-1.89387 0,-1.03049 -0.0277,-2.06098 0,-2.28379 0.0277,-0.2228 0.0835,-1.33684 0.16709,-2.45089 l 0.13924,-2.00527 -1.11404,0.16711 c -1.50394,0.25066 -2.25592,-0.33421 -3.03574,-2.31164 -0.61273,-1.5318 -1.25331,-3.00791 -3.7599,-8.77307 -0.97479,-2.25593 -1.08618,-2.39518 -2.06098,-2.59014 -1.3647,-0.27851 -7.18555,-0.30636 -13.25706,-0.0835 -2.75726,0.0835 -10.13778,0.30636 -16.43212,0.47346 -6.26645,0.16711 -12.338,0.36207 -13.47989,0.38992 l -2.06098,0.0835 0.16713,-5.65376 c -1.08791,-13.0233 -3.89663,-18.93056 -4.48403,-27.79531 0,-1.22544 0.1114,-2.64584 0.30637,-3.17501 0.25067,-0.75198 0.25067,-0.97479 0,-1.05834 0.70348,-6.78783 -1.73161,-36.36235 -5.60499,-44.34591 l -4.06697,-6.50347 c -2.193,-4.00085 -1.24434,-3.52144 -5.01347,-8.8075 -5.99215,-11.32696 -11.07453,-12.18885 -13.52762,-14.70528 0,-0.27851 -0.13925,-0.66843 -0.30636,-0.83554 -0.41776,-0.41776 -0.33421,-5.15243 0.0836,-6.07152 0.2228,-0.47346 0.1671,-0.97478 -0.19496,-2.08882 -0.25066,-0.77983 -0.55702,-2.33949 -0.66843,-3.42568 -0.1671,-1.83817 -0.2228,-2.00527 -0.91908,-2.25593 -1.14189,-0.38991 -1.94957,0.41776 -1.89387,1.92172 0.0836,1.61536 0.0279,1.81032 -0.30636,1.81032 -0.25066,0 -0.27851,-0.83553 -0.13926,-3.00791 1.17508,-3.08106 0.27854,-4.83558 0.0279,-6.96276 -0.30637,-2.7851 -0.27851,-3.87129 0.1114,-4.59541 -1.22545,-2.98006 -1.45611,-1.53712 -1.22545,-2.98006 0.11141,-0.64057 0.0557,-1.1419 -0.1114,-1.2533 -0.1671,-0.0836 -0.30636,-0.72412 -0.30636,-1.39255 0,-1.39255 -0.47347,-2.64585 -1.00264,-2.64585 -0.66842,0 -1.309,1.309 -1.11404,2.31164 0.11141,0.61272 0.0279,1.22544 -0.25066,1.75461 -0.22281,0.44562 -0.41776,0.75198 -0.41776,0.66843 -0.0279,-0.0836 -0.0836,-1.61536 -0.16711,-3.42568 -0.0836,-2.47874 -1.61909,-6.83085 -1.25697,-7.97274 -7.72569,-35.67089 -5.03864,-35.5853 -10.13667,-14.09316 z"
       sodipodi:nodetypes="ccccccccccscscsccscccccccccccccccccscccccccccccsscccscsccsccccccccccccssccscscscccsscccccccsscccccccccccccccccccscccccssccsscccccscccccccccccccccccssccccccccscccccccccccscsccccccccccccccccccscccccscccccsscccccc" />
    <path
       style="fill:#000000;stroke:none"
       inkscape:connector-curvature="0"
       id="path58-6"
       d="m 599.34474,528.84096 c 0,0.13926 -0.19494,0.27851 -0.44561,0.27851 -0.5013,0 -1.22543,0.64057 -1.22543,1.08619 0,0.16711 0.13924,0.30636 0.27849,0.30636 0.16712,0 0.27851,0.19496 0.27851,0.41777 0,0.22281 0.19498,0.41776 0.41776,0.41776 0.22282,0 0.41776,-0.25066 0.41776,-0.52917 0,-0.83553 0.30637,-1.4204 0.72416,-1.4204 0.22279,0 0.38991,-0.19496 0.38991,-0.41776 0,-0.22281 -0.19497,-0.41777 -0.41779,-0.41777 -0.22279,0 -0.41776,0.11141 -0.41776,0.27851 z" />
    <path
       style="fill:#000000;stroke:none"
       inkscape:connector-curvature="0"
       id="path60-0"
       d="m 598.50922,532.87936 c 0,0.22281 0.19494,0.41776 0.41776,0.41776 0.22282,0 0.41776,-0.19495 0.41776,-0.41776 0,-0.22281 -0.19494,-0.41777 -0.41776,-0.41777 -0.22282,0 -0.41776,0.19496 -0.41776,0.41777 z" />
    <path
       style="fill:#000000;stroke:none"
       inkscape:connector-curvature="0"
       id="path78-0"
       d="m 577.34245,636.48514 c 0,0.44561 0.16712,0.69627 0.41775,0.69627 0.25067,0 0.41776,-0.25066 0.41776,-0.69627 0,-0.44562 -0.16709,-0.69628 -0.41776,-0.69628 -0.25063,0 -0.41775,0.25066 -0.41775,0.69628 z" />
    <path
       style="fill:#000000;stroke:none"
       inkscape:connector-curvature="0"
       id="path82-3"
       d="m 663.68058,638.1562 c 0,0.2228 0.19498,0.41776 0.41776,0.41776 0.22282,0 0.4178,-0.19496 0.4178,-0.41776 0,-0.22281 -0.19498,-0.41777 -0.4178,-0.41777 -0.22278,0 -0.41776,0.19496 -0.41776,0.41777 z" />
    <g
       transform="matrix(0.26002042,0.13016437,-0.13016437,0.26002042,878.16943,333.17195)"
       id="g4555"
       style="stroke:#000000;stroke-width:8.97824287;stroke-miterlimit:4;stroke-dasharray:none;stroke-opacity:1" />
    <g
       style="stroke:#feffff;stroke-width:6.87269688;stroke-miterlimit:4;stroke-dasharray:none;stroke-opacity:1"
       id="g5261"
       transform="matrix(0.00576323,0.29094953,-0.29094953,0.00576323,586.6658,315.30612)">
      <g
         style="stroke:#feffff;stroke-width:8.3001585;stroke-miterlimit:4;stroke-dasharray:none;stroke-opacity:1"
         id="g7070"
         transform="matrix(0.82801995,0,0,0.82801995,379.49855,294.81615)">
        <path
           inkscape:connector-curvature="0"
           id="path2202"
           style="fill:none;stroke:#feffff;stroke-width:8.3001585;stroke-linecap:round;stroke-linejoin:round;stroke-miterlimit:4;stroke-dasharray:none;stroke-opacity:1"
           d="M 627.37638,58.063266 V 201.0981" />
        <path
           inkscape:connector-curvature="0"
           id="path4145"
           style="fill:none;stroke:#feffff;stroke-width:8.3001585;stroke-linecap:round;stroke-linejoin:round;stroke-miterlimit:4;stroke-dasharray:none;stroke-opacity:1"
           d="M 626.79494,129.25057 H 557.02185" />
        <path
           inkscape:connector-curvature="0"
           id="path5118"
           style="fill:none;stroke:#feffff;stroke-width:8.3001585;stroke-linecap:round;stroke-linejoin:round;stroke-miterlimit:4;stroke-dasharray:none;stroke-opacity:1"
           d="M 629.12071,108.64876 679.70619,58.06327" />
        <path
           inkscape:connector-curvature="0"
           id="path6089"
           style="fill:none;stroke:#feffff;stroke-width:8.3001585;stroke-linecap:round;stroke-linejoin:round;stroke-miterlimit:4;stroke-dasharray:none;stroke-opacity:1"
           d="m 629.12071,150.33838 50.58548,50.58549" />
        <path
           inkscape:connector-curvature="0"
           id="path6093"
           style="fill:#ffffff;fill-opacity:1;fill-rule:evenodd;stroke:#feffff;stroke-width:8.3001585;stroke-linecap:butt;stroke-linejoin:miter;stroke-miterlimit:4;stroke-dasharray:none;stroke-opacity:1"
           d="m 664.9893,186.20111 -16.27288,-29.48325 -13.15851,13.15852 z" />
      </g>
      <circle
         r="84.686646"
         cy="151.58038"
         cx="111.00817"
         style="color:#000000;display:inline;overflow:visible;visibility:visible;fill:none;stroke:#feffff;stroke-width:8.3001585;stroke-linecap:butt;stroke-linejoin:miter;stroke-miterlimit:4;stroke-dasharray:none;stroke-dashoffset:0;stroke-opacity:1;marker:none;enable-background:accumulate"
         id="path4553"
         transform="matrix(0.82801995,0,0,0.82801995,817.07033,276.41603)" />
    </g>
    <path
       inkscape:connector-curvature="0"
       style="fill:#000000;fill-opacity:1;stroke:#000000;stroke-width:0.93931103;stroke-linejoin:round;stroke-miterlimit:4;stroke-dasharray:none"
       d="m 376.48,553.3535 c 0,0 -0.0425,-0.77911 -0.89665,-2.06635 -0.93864,-1.41425 -2.34378,-2.79805 -4.54144,-4.67445 -2.05301,-1.75321 -4.3946,-3.61346 -5.9513,-5.6859 -1.58569,-2.11118 -2.23856,-4.30808 -1.65693,-6.49784 0.5687,-2.14656 2.26683,-3.90038 4.37658,-4.63522 2.14836,-0.74844 4.28206,-0.31183 5.88284,0.86389 1.60822,1.18062 2.32734,2.79903 2.57398,3.74141 0.24835,0.94985 -0.002,0.95195 0.23702,-0.003 0.23724,-0.94644 0.94019,-2.57669 2.53651,-3.78405 1.58896,-1.2023 3.71812,-1.67447 5.87375,-0.96191 2.1169,0.6996 3.83236,2.42494 4.42239,4.56183 0.6034,2.1799 -0.0276,4.38751 -1.59208,6.52494 -1.53592,2.09823 -3.8588,3.99738 -5.89418,5.78469 -2.17877,1.91287 -3.57001,3.32001 -4.49451,4.74978 -0.84118,1.3014 -0.87598,2.08114 -0.87598,2.08114 z"
       id="path4293" />
    <text
       xml:space="preserve"
       style="font-style:normal;font-variant:normal;font-weight:normal;font-stretch:normal;line-height:0%;font-family:'Arial Black';-inkscape-font-specification:'Arial Black, ';letter-spacing:0px;word-spacing:0px;fill:#000000;fill-opacity:1;stroke:none;stroke-width:1px;stroke-linecap:butt;stroke-linejoin:miter;stroke-opacity:1"
       x="238.58472"
       y="729.883"
       id="text5451"><tspan
         sodipodi:role="line"
         id="tspan5453"
         x="238.58472"
         y="729.883"
         style="font-style:normal;font-variant:normal;font-weight:600;font-stretch:normal;font-size:33.75px;line-height:1.25;font-family:'Source Code Pro';-inkscape-font-specification:'Source Code Pro Semi-Bold';fill:#ffffff">megahertz-hannover.org</tspan></text>
    <path
       inkscape:connector-curvature="0"
       id="path4178"
       style="fill:none;fill-rule:evenodd;stroke:#000000;stroke-width:4;stroke-linecap:butt;stroke-linejoin:miter;stroke-miterlimit:5;stroke-dasharray:none;stroke-opacity:1"
       d="m 419.80586,415.68268 h 30.47372 l 4.21649,-6.92247 6.89971,13.32573 7.66634,-13.49879 6.70806,13.32572 7.28302,-13.15266 7.28303,13.2392 4.02481,-6.4898 h 30.66537" />
    <path
       style="fill:none;fill-rule:evenodd;stroke:#000000;stroke-width:4;stroke-linecap:butt;stroke-linejoin:miter;stroke-miterlimit:4;stroke-dasharray:none;stroke-opacity:1"
       d="m 376.04681,454.77806 221.81318,0.16074 v 86.63572"
       id="path6595"
       inkscape:connector-curvature="0"
       sodipodi:nodetypes="ccc" />
    <path
       style="fill:none;fill-rule:evenodd;stroke:#000000;stroke-width:4;stroke-linecap:butt;stroke-linejoin:miter;stroke-miterlimit:4;stroke-dasharray:none;stroke-opacity:1"
       d="m 597.77045,452.9388 -0.32148,-37.29034 -76.6702,-0.16073"
       id="path6597"
       inkscape:connector-curvature="0"
       sodipodi:nodetypes="ccc" />
    <path
       style="fill:none;fill-rule:evenodd;stroke:#000000;stroke-width:4;stroke-linecap:butt;stroke-linejoin:miter;stroke-miterlimit:4;stroke-dasharray:none;stroke-opacity:1"
       d="m 376.66091,520.68952 -0.37076,-105.01347 48.27541,0.039"
       id="path6599"
       inkscape:connector-curvature="0"
       sodipodi:nodetypes="ccc" />
    <path
       style="fill:none;fill-rule:evenodd;stroke:#000000;stroke-width:4;stroke-linecap:butt;stroke-linejoin:miter;stroke-miterlimit:4;stroke-dasharray:none;stroke-opacity:1"
       d="m 395.529,541.50333 66.0284,-0.64293"
       id="path6601"
       inkscape:connector-curvature="0"
       sodipodi:nodetypes="cc" />
    <path
       style="fill:none;fill-rule:evenodd;stroke:#000000;stroke-width:4;stroke-linecap:butt;stroke-linejoin:miter;stroke-miterlimit:4;stroke-dasharray:none;stroke-opacity:1"
       d="m 355.93188,542.16267 -56.39801,-0.24375 0.0357,37.85861"
       id="path6603"
       inkscape:connector-curvature="0"
       sodipodi:nodetypes="ccc" />
    <rect
       style="fill:#000000;fill-opacity:1;stroke:none;stroke-width:2;stroke-linecap:round;stroke-linejoin:round;stroke-miterlimit:4;stroke-dasharray:none;stroke-opacity:1"
       id="rect6605"
       width="3.7578979"
       height="15.911873"
       x="541.20343"
       y="531.86926" />
    <rect
       style="fill:#000000;fill-opacity:1;stroke:none;stroke-width:2;stroke-linecap:round;stroke-linejoin:round;stroke-miterlimit:4;stroke-dasharray:none;stroke-opacity:1"
       id="rect6605-5"
       width="3.7578979"
       height="15.911873"
       x="551.33911"
       y="531.82092" />
    <rect
       style="fill:#000000;fill-opacity:1;stroke:none;stroke-width:2;stroke-linecap:round;stroke-linejoin:round;stroke-miterlimit:4;stroke-dasharray:none;stroke-opacity:1"
       id="rect6626"
       width="26.807983"
       height="3.3947992"
       x="534.73627"
       y="526.263" />
    <ellipse
       style="fill:none;fill-opacity:1;stroke:#000000;stroke-width:2;stroke-linecap:round;stroke-linejoin:round;stroke-miterlimit:4;stroke-dasharray:none;stroke-opacity:1"
       id="path6628"
       cx="548.46094"
       cy="535.12079"
       rx="20.003498"
       ry="19.32156" />
    <path
       style="fill:none;fill-rule:evenodd;stroke:#000000;stroke-width:4;stroke-linecap:butt;stroke-linejoin:miter;stroke-miterlimit:4;stroke-dasharray:none;stroke-opacity:1"
       d="M 528.72879,536.80354 H 485.08481"
       id="path6636"
       inkscape:connector-curvature="0"
       sodipodi:nodetypes="cc" />
    <path
       style="fill:none;fill-rule:evenodd;stroke:#000000;stroke-width:4;stroke-linecap:butt;stroke-linejoin:miter;stroke-miterlimit:4;stroke-dasharray:none;stroke-opacity:1"
       d="m 568.73579,535.89429 h 29.096"
       id="path6638"
       inkscape:connector-curvature="0" />
    <rect
       style="fill:#000000;fill-opacity:1;stroke:none;stroke-width:4;stroke-linecap:round;stroke-linejoin:round;stroke-miterlimit:4;stroke-dasharray:none;stroke-opacity:1"
       id="rect6640"
       width="28.932167"
       height="2.8193169"
       x="283.60629"
       y="458.21078" />
    <rect
       style="fill:#000000;fill-opacity:1;stroke:none;stroke-width:4;stroke-linecap:round;stroke-linejoin:round;stroke-miterlimit:4;stroke-dasharray:none;stroke-opacity:1"
       id="rect6640-7"
       width="44.362648"
       height="2.8193169"
       x="276.85544"
       y="474.93396" />
    <rect
       style="fill:#000000;fill-opacity:1;stroke:none;stroke-width:4;stroke-linecap:round;stroke-linejoin:round;stroke-miterlimit:4;stroke-dasharray:none;stroke-opacity:1"
       id="rect6640-7-0"
       width="58.507256"
       height="2.8193169"
       x="271.06903"
       y="491.89206" />
    <path
       style="fill:none;fill-rule:evenodd;stroke:#000000;stroke-width:4;stroke-linecap:butt;stroke-linejoin:miter;stroke-miterlimit:4;stroke-dasharray:none;stroke-opacity:1"
       d="M 299.60852,540.8604 297.67971,439.91933"
       id="path6672"
       inkscape:connector-curvature="0" />
    <ellipse
       style="fill:none;fill-opacity:1;stroke:#000000;stroke-width:2;stroke-linecap:round;stroke-linejoin:round;stroke-miterlimit:4;stroke-dasharray:none;stroke-opacity:1"
       id="path6628-5"
       cx="376.32318"
       cy="540.34552"
       rx="20.0035"
       ry="19.321562" />
  </g>
</svg>
