<?xml version="1.0" encoding="UTF-8" standalone="no"?>
<svg
   xmlns:dc="http://purl.org/dc/elements/1.1/"
   xmlns:cc="http://creativecommons.org/ns#"
   xmlns:rdf="http://www.w3.org/1999/02/22-rdf-syntax-ns#"
   xmlns:svg="http://www.w3.org/2000/svg"
   xmlns="http://www.w3.org/2000/svg"
   version="1.1"
   id="svg2"
   viewBox="0 0 470.84105 281.50639"
   height="79.44735mm"
   width="132.88181mm">
  <defs
     id="defs4" />
  <metadata
     id="metadata7">
    <rdf:RDF>
      <cc:Work
         rdf:about="">
        <dc:format>image/svg+xml</dc:format>
        <dc:type
           rdf:resource="http://purl.org/dc/dcmitype/StillImage" />
        <dc:title></dc:title>
      </cc:Work>
    </rdf:RDF>
  </metadata>
  <g
     transform="translate(-226.93645,-404.35018)"
     id="layer1">
    <g
       transform="matrix(1.25,0,0,1.25,-1109.1798,118.48225)"
       id="text3056"
       style="font-style:normal;font-variant:normal;font-weight:bold;font-stretch:normal;font-size:188px;line-height:0%;font-family:Sans;-inkscape-font-specification:'Sans Bold';letter-spacing:0px;word-spacing:0px;fill:#ffffff;fill-opacity:1;stroke:none" />
    <path
       id="path50-7"
       transform="matrix(0.93750006,0,0,0.93750006,226.93645,404.35018)"
       d="m 265.01758,75.644531 c -0.82566,0.0069 -1.61506,5.665648 -3.99414,15.695313 -1.94491,6.370933 -2.18355,6.304486 -4.78125,23.953126 -0.80211,0.7724 -1.36657,0.5042 -1.12891,-0.50586 0.11883,-0.38621 0.0303,-0.92055 -0.17773,-1.1582 -0.23766,-0.26737 -0.29657,-0.83235 -0.17774,-1.51563 0.14854,-0.7427 0.089,-1.27622 -0.26758,-1.78125 -1.06948,-1.66364 -1.66478,-0.53553 -1.7539,3.44531 0,0 0.049,3.20956 -1.2461,7.39649 -0.29707,0.59415 -0.44654,1.4557 -0.35742,2.25781 -0.17736,1.68233 0.53516,3.41602 0.53516,3.41602 v 3.29882 c 0,2.88166 -0.0607,3.26768 -0.47656,3.11914 -0.26737,-0.0892 -0.59365,-0.17773 -0.74219,-0.17773 -0.44562,0 -0.95004,-1.54607 -0.89063,-2.73437 0.0892,-1.42598 -0.41581,-2.31641 -1.27734,-2.31641 -0.59415,0 -0.74362,0.17785 -0.92187,1.1582 -0.0892,0.62386 -0.0892,1.63436 0,2.22852 0.17825,0.89124 0.11903,1.06836 -0.29688,1.06836 -0.4159,0 -0.47513,0.14916 -0.29688,0.80273 0.32679,1.39627 0.53454,6.83278 0.29688,9.17969 -0.23765,2.46575 -0.53436,2.91213 -3.41602,5.16992 -3.80259,2.94107 -8.58637,8.22836 -11.3789,12.47656 -19.02219,42.79184 -12.29336,24.87234 -19.69531,63.93164 0,0 -1.74808,7.561 -3,12.86329 -0.24006,6.8437 0.14843,8.58593 0.14843,8.58593 -0.0564,2.02815 -0.0786,3.65495 0.0586,6.56446 0.0308,1.64961 -0.57074,2.94625 0.21289,4.04882 -7.83423,-0.17818 -17.6522,-0.22491 -27.2168,-0.18554 h -4.30859 l -1.27735,-1.93164 c -0.71298,-1.06948 -1.4854,-1.96012 -1.69336,-2.01953 -0.23765,-0.0594 -0.71186,0.4152 -1.06836,1.03906 -0.38619,0.62386 -1.12891,1.60311 -1.69335,2.19726 l -1.00977,1.07032 -3.23828,0.0293 c -2.52515,0.0594 -3.26758,-0.0291 -3.26758,-0.32617 0,-0.20796 0.14793,-0.53464 0.32617,-0.71289 0.26737,-0.26737 0.23776,-0.6245 -0.14844,-1.36719 -0.71299,-1.51509 -0.68374,-7.78382 0.0293,-8.58593 0.44561,-0.50503 0.44593,-0.68186 0.11914,-1.51368 -0.20796,-0.53474 -0.50422,-1.57525 -0.62304,-2.34765 -0.14855,-0.77241 -0.7129,-2.25751 -1.27735,-3.26758 -0.95065,-1.72305 -1.07052,-2.16954 -1.33789,-5.58594 -0.17825,-2.43603 -0.17871,-3.95128 0.0293,-4.36719 0.38619,-0.86152 -0.3857,-1.69315 -1.30664,-1.42578 -0.59416,0.20796 -0.65378,0.56519 -0.26758,1.78321 0.29708,0.86152 -0.41479,6.80368 -1.06836,8.85351 -0.38621,1.27744 -0.71484,2.58336 -0.71484,2.91016 0,0.29706 -0.20765,0.56445 -0.44532,0.56445 -0.53474,0 -0.59334,0.77251 -0.0586,0.98047 0.20795,0.0891 0.14792,0.23819 -0.23828,0.38672 -0.32679,0.11883 -0.68196,0.3569 -0.80078,0.53515 -0.35649,0.50503 -0.26901,1.5142 0.11718,1.9004 0.41592,0.41591 0.65533,4.15883 0.29883,4.96093 -0.86152,1.84189 -1.36666,6.7453 -0.98047,9.0625 0.14854,0.89124 0.17743,2.43567 0.0586,3.41602 -0.17824,1.63392 -0.23767,1.72152 -0.56446,1.09765 -0.20795,-0.35649 -0.53464,-0.65234 -0.71289,-0.65234 -0.50503,0 -1.0992,0.95098 -1.1289,1.8125 0,0.41591 -0.29781,1.06928 -0.6543,1.42578 -0.53474,0.59415 -0.56465,0.80202 -0.26758,1.27735 0.26737,0.44561 0.26748,0.65286 -0.14844,1.03906 -0.4159,0.41591 -0.47511,0.89158 -0.29687,2.94141 0.14854,2.16867 0.11945,2.46669 -0.32617,2.61523 -0.29708,0.0891 -4.78357,0.23663 -9.98242,0.35547 l -9.41602,0.20898 0.0586,-4.93164 0.0899,-4.93164 -0.95117,-0.86133 c -1.09919,-1.03977 -1.57525,-2.40701 -1.78321,-5.31836 -0.14853,-1.87159 -0.23757,-2.16797 -0.71289,-2.16797 -0.44562,0 -0.56445,0.23614 -0.56445,1.09766 0,0.62386 -0.14834,1.60548 -0.29688,2.16992 -0.14854,0.56445 -0.44479,1.66273 -0.62304,2.46485 -0.20795,0.77239 -0.50535,1.39648 -0.6836,1.39648 -0.17824,0 -0.59509,0.38642 -0.92187,0.83203 -0.53474,0.71299 -0.59375,1.2779 -0.59375,5.61524 v 4.84179 h -0.74219 c -0.4159,0 -4.12998,0.14835 -8.28906,0.29688 -4.575,0.20796 -7.66355,0.20749 -7.8418,0.0293 -0.14853,-0.14855 -0.32689,-1.33699 -0.41601,-2.67383 -0.11884,-1.75276 -0.29709,-2.40625 -0.56446,-2.40625 -0.29707,0 -0.41601,0.50494 -0.41601,1.84179 0,3.20844 -0.0601,3.32779 -4.75391,10.13086 -1.60421,2.2875 -1.63396,2.31764 -2.82226,2.22852 l -1.187504,-0.0898 0.05859,-2.46485 c -0.825173,-3.01434 -0.493025,-5.00177 -0.05859,-7.7832 2.499384,-10.42226 0.142933,-28.65653 -3.980469,-34.22461 -0.831819,-1.01007 -1.723178,-2.55356 -2.109375,-3.62305 -1.010069,-2.85193 -1.783203,-5.61514 -1.783203,-6.32812 0,-0.38621 -0.178352,-0.6836 -0.416016,-0.6836 -0.237664,0 -0.50463,-0.23806 -0.59375,-0.53515 -2.274794,-6.94026 -3.575237,-15.18594 -3.416015,-20.08203 0.05941,-1.15861 -0.03121,-2.9704 -0.179688,-3.98047 -1.687883,-4.94318 -6.989014,-13.99824 -7.648438,-20.58008 -4.349567,-2.35867 -4.035159,7.40593 -6.910156,13 0.415915,0.7724 -1.067651,4.75783 -1.542968,5.88672 -0.178251,0.47533 -0.265929,0.32729 -0.384766,-0.74219 -0.118827,-1.09919 -0.268004,-1.36637 -0.802734,-1.42578 -0.505035,-0.0594 -0.713615,0.0887 -0.802735,0.59375 -0.594155,2.82224 -0.712997,3.89188 -0.564453,5.49609 -0.509259,2.4933 0.42073,4.39871 -0.177734,6.92188 -0.564448,2.34691 -3.14814,11.25864 -3.59375,12.32812 -0.148544,0.32679 -0.417054,1.12964 -0.625,1.78321 -0.802112,2.61428 -1.276109,3.74312 -1.929688,4.66406 -0.386197,0.50502 -0.714844,1.0991 -0.714844,1.27734 -5.083743,13.31536 -9.880074,23.74549 -7.722656,39.50977 0.326773,1.96071 0.59375,4.60579 0.59375,5.85351 1.2848,-0.29138 1.836756,6.68844 1.8125,9.83399 -0.02965,1.42597 0.119034,2.88025 0.267578,3.20703 0.237654,0.3862 0.237654,0.56445 0,0.56445 -0.207957,0 -0.268408,1.06972 -0.208984,3.08985 0.08917,2.55487 0.03078,3.17907 -0.355469,3.50586 -0.267371,0.20795 -0.713098,0.35628 -0.980469,0.29687 -0.44561,-0.0892 -0.475838,-0.53468 -0.386718,-4.09961 l 0.08984,-3.98047 h -1.605468 c -1.396267,0 -1.603516,-0.059 -1.603516,-0.59375 0,-0.50503 -0.207451,-0.5957 -1.306641,-0.5957 -5.917365,2.94471 -9.583678,-3.8574 -15.033203,-4.03906 0,0.26737 -0.207648,0.47461 -0.445312,0.47461 -0.297078,0 -0.445313,0.32803 -0.445313,1.04101 0,0.98035 -0.03028,1.00987 -0.951172,0.86133 -0.534741,-0.0892 -1.840673,-0.41581 -2.910156,-0.71289 -1.069472,-0.29709 -2.585027,-0.68462 -3.357422,-0.89258 -3.530848,-1.50437 -2.487093,-7.10161 -2.703125,-10.39648 -0.05941,-0.23767 -0.08948,-1.15996 -0.11914,-2.02149 -0.05941,-1.51509 -0.0897,-1.54492 -0.951172,-1.54492 -0.802102,0 -0.890215,0.0897 -0.919922,0.95117 0,0.95065 -0.03079,0.92217 -0.773438,-0.65234 -0.920938,-1.99042 -0.712794,-1.78424 -1.990234,-1.99219 -3.559008,1.97117 -3.068925,1.86203 -3.457031,4.98242 -0.701451,3.47053 -0.5315,5.20456 -1.742188,7.94141 -2.684885,8.29358 -3.004062,9.46555 -5.1269529,15.99023 C 8.6680858,300.2731 0,300.27344 0,300.27344 h 502.23047 c -14.68858,-5.97162 -12.87923,-7.97446 -16.75586,-24.35156 -0.23764,-1.06949 -0.68379,-2.49446 -0.95117,-3.17774 -1.81473,-9.01072 -10.51499,-25.57244 -21.00391,-7.48633 -4.82847,2.01067 1.13529,11.0823 -14.16992,15.86328 -0.26738,0.20796 -34.19274,1.12788 -34.51953,0.91993 -0.7724,-0.50503 0.50473,-18.77379 1.57422,-22.2793 0.14856,-0.50503 0.26757,-1.33676 0.26758,-1.8418 0,-0.53474 0.1186,-0.95117 0.29687,-0.95117 0.3862,0 0.32611,-2.882 -0.0898,-4.07031 2.85099,-21.79948 -11.35339,-31.38901 -12.98243,-55.34571 0,-0.50503 0.14832,-0.89062 0.29688,-0.89062 -0.36301,-11.44846 -2.15379,-12.39533 -1.7832,-14.4082 0.21259,-3.76523 1.62155,-4.88559 0.38672,-7.48633 -2.45421,-10.67092 -4.54824,-8.15994 -5.62305,-26.19727 -0.26299,-17.57055 -4.22735,-10.9705 -4.47656,-1.16211 4.62263,11.71425 -6.06712,24.85919 -3.06055,29.79492 -0.3862,0.23767 -0.3862,1.63477 0,1.63477 0.3862,0 0.38645,4.57403 -0.0293,6 -1.38406,5.13178 -2.05078,10.93359 -2.05078,10.93359 -7.96189,36.87707 -18.45555,30.07687 -13.66406,66.09961 2.33991,8.4368 2.99729,8.89779 3.08008,7.47071 0.21049,1.77141 0.50127,4.09064 0.95312,7.4707 0.20797,0.0892 0.238,0.62553 0.11914,1.57617 -0.11881,0.95065 -0.0595,1.60374 0.14844,1.8711 0.29709,0.3565 0.26706,0.59335 -0.11914,1.1875 -0.44561,0.65357 -0.44639,0.89115 -0.0898,1.84179 0.29707,0.89123 0.29682,1.12963 0.0293,1.21875 -0.4159,0.14854 -0.53463,2.04945 -0.14844,2.28711 0.14853,0.0891 -0.5269,1.09879 -0.55664,2.28711 -0.0891,2.2875 0.46854,2.64453 -0.92773,2.64453 -0.83182,0 -0.83318,-0.029 -0.89258,-2.01953 0,-1.09919 -0.0295,-2.19983 0,-2.4375 0.0296,-0.23765 0.0905,-1.42496 0.17969,-2.61328 l 0.14844,-2.13867 -1.18946,0.17773 c -1.6042,0.26737 -2.40647,-0.35558 -3.23828,-2.46484 -0.65358,-1.63392 -1.33607,-3.20987 -4.00976,-9.35938 -1.03978,-2.40632 -1.15944,-2.55376 -2.19922,-2.76171 -1.45568,-0.29708 -7.66435,-0.32757 -14.14063,-0.0899 -2.94107,0.0891 -10.81338,0.32762 -17.52734,0.50586 -6.68421,0.17825 -13.16089,0.38631 -14.37891,0.41602 l -2.19726,0.0879 0.17773,-6.0293 c -1.16044,-13.89152 -4.15664,-20.1927 -4.7832,-29.64844 0,-1.30713 0.1182,-2.82227 0.32617,-3.38672 0.26738,-0.80211 0.26738,-1.03978 0,-1.1289 0.75038,-7.24035 -1.84691,-38.78694 -5.97852,-47.30274 l -4.33789,-6.9375 c -2.3392,-4.26757 -1.32725,-3.75606 -5.34765,-9.39453 -6.39163,-12.08209 -11.81306,-13.00135 -14.42969,-15.68555 0,-0.29707 -0.14792,-0.71237 -0.32617,-0.89062 -0.44561,-0.44561 -0.35582,-5.4962 0.0898,-6.47656 0.23766,-0.50503 0.17721,-1.04021 -0.20898,-2.22852 -0.26737,-0.83182 -0.59406,-2.49569 -0.71289,-3.6543 -0.17824,-1.96071 -0.23777,-2.13887 -0.98047,-2.40624 -1.21802,-0.41591 -2.07895,0.44655 -2.01953,2.05078 0.0892,1.72305 0.0304,1.92968 -0.32618,1.92968 -0.26737,0 -0.29697,-0.88982 -0.14843,-3.20703 1.25342,-3.28646 0.29664,-5.15874 0.0293,-7.42773 -0.32679,-2.97078 -0.29676,-4.12995 0.11914,-4.90235 -1.30714,-3.17873 -1.55463,-1.63859 -1.30859,-3.17773 0.11884,-0.68327 0.0611,-1.21906 -0.11719,-1.33789 -0.17824,-0.0892 -0.32812,-0.77138 -0.32812,-1.48438 0,-1.48538 -0.50391,-2.82226 -1.06836,-2.82226 -0.71298,0 -1.39741,1.39536 -1.18945,2.46484 0.11883,0.65357 0.0295,1.3086 -0.26758,1.87305 -0.23767,0.47533 -0.44531,0.80201 -0.44531,0.71289 -0.0298,-0.0892 -0.0887,-1.72329 -0.17774,-3.6543 -0.0892,-2.64399 -1.72806,-7.28589 -1.3418,-8.5039 -4.63541,-21.402536 -5.75485,-30.737364 -6.8164,-30.728519 z"
       style="fill:#000000;stroke:none;stroke-width:1.0666666" />
    <path
       d="m 599.34474,528.84096 c 0,0.13926 -0.19494,0.27851 -0.44561,0.27851 -0.5013,0 -1.22543,0.64057 -1.22543,1.08619 0,0.16711 0.13924,0.30636 0.27849,0.30636 0.16712,0 0.27851,0.19496 0.27851,0.41777 0,0.22281 0.19498,0.41776 0.41776,0.41776 0.22282,0 0.41776,-0.25066 0.41776,-0.52917 0,-0.83553 0.30637,-1.4204 0.72416,-1.4204 0.22279,0 0.38991,-0.19496 0.38991,-0.41776 0,-0.22281 -0.19497,-0.41777 -0.41779,-0.41777 -0.22279,0 -0.41776,0.11141 -0.41776,0.27851 z"
       id="path58-6"
       style="fill:#000000;stroke:none" />
    <path
       d="m 598.50922,532.87936 c 0,0.22281 0.19494,0.41776 0.41776,0.41776 0.22282,0 0.41776,-0.19495 0.41776,-0.41776 0,-0.22281 -0.19494,-0.41777 -0.41776,-0.41777 -0.22282,0 -0.41776,0.19496 -0.41776,0.41777 z"
       id="path60-0"
       style="fill:#000000;stroke:none" />
    <path
       d="m 577.34245,636.48514 c 0,0.44561 0.16712,0.69627 0.41775,0.69627 0.25067,0 0.41776,-0.25066 0.41776,-0.69627 0,-0.44562 -0.16709,-0.69628 -0.41776,-0.69628 -0.25063,0 -0.41775,0.25066 -0.41775,0.69628 z"
       id="path78-0"
       style="fill:#000000;stroke:none" />
    <path
       d="m 663.68058,638.1562 c 0,0.2228 0.19498,0.41776 0.41776,0.41776 0.22282,0 0.4178,-0.19496 0.4178,-0.41776 0,-0.22281 -0.19498,-0.41777 -0.4178,-0.41777 -0.22278,0 -0.41776,0.19496 -0.41776,0.41777 z"
       id="path82-3"
       style="fill:#000000;stroke:none" />
    <g
       style="stroke:#000000;stroke-width:8.97824287;stroke-miterlimit:4;stroke-dasharray:none;stroke-opacity:1"
       id="g4555"
       transform="matrix(0.26002042,0.13016437,-0.13016437,0.26002042,878.16943,333.17195)" />
    <g
       transform="matrix(0.00576323,0.29094953,-0.29094953,0.00576323,586.6658,315.30612)"
       id="g5261"
       style="stroke:#feffff;stroke-width:6.87269688;stroke-miterlimit:4;stroke-dasharray:none;stroke-opacity:1">
      <g
         transform="matrix(0.82801995,0,0,0.82801995,379.49855,294.81615)"
         id="g7070"
         style="stroke:#feffff;stroke-width:8.3001585;stroke-miterlimit:4;stroke-dasharray:none;stroke-opacity:1">
        <path
           d="M 627.37638,58.063266 V 201.0981"
           style="fill:none;stroke:#feffff;stroke-width:8.3001585;stroke-linecap:round;stroke-linejoin:round;stroke-miterlimit:4;stroke-dasharray:none;stroke-opacity:1"
           id="path2202" />
        <path
           d="M 626.79494,129.25057 H 557.02185"
           style="fill:none;stroke:#feffff;stroke-width:8.3001585;stroke-linecap:round;stroke-linejoin:round;stroke-miterlimit:4;stroke-dasharray:none;stroke-opacity:1"
           id="path4145" />
        <path
           d="M 629.12071,108.64876 679.70619,58.06327"
           style="fill:none;stroke:#feffff;stroke-width:8.3001585;stroke-linecap:round;stroke-linejoin:round;stroke-miterlimit:4;stroke-dasharray:none;stroke-opacity:1"
           id="path5118" />
        <path
           d="m 629.12071,150.33838 50.58548,50.58549"
           style="fill:none;stroke:#feffff;stroke-width:8.3001585;stroke-linecap:round;stroke-linejoin:round;stroke-miterlimit:4;stroke-dasharray:none;stroke-opacity:1"
           id="path6089" />
        <path
           d="m 664.9893,186.20111 -16.27288,-29.48325 -13.15851,13.15852 z"
           style="fill:#ffffff;fill-opacity:1;fill-rule:evenodd;stroke:#feffff;stroke-width:8.3001585;stroke-linecap:butt;stroke-linejoin:miter;stroke-miterlimit:4;stroke-dasharray:none;stroke-opacity:1"
           id="path6093" />
      </g>
      <circle
         transform="matrix(0.82801995,0,0,0.82801995,817.07033,276.41603)"
         id="path4553"
         style="color:#000000;display:inline;overflow:visible;visibility:visible;fill:none;stroke:#feffff;stroke-width:8.3001585;stroke-linecap:butt;stroke-linejoin:miter;stroke-miterlimit:4;stroke-dasharray:none;stroke-dashoffset:0;stroke-opacity:1;marker:none;enable-background:accumulate"
         cx="111.00817"
         cy="151.58038"
         r="84.686646" />
    </g>
    <path
       id="path4293"
       d="m 376.48,553.3535 c 0,0 -0.0425,-0.77911 -0.89665,-2.06635 -0.93864,-1.41425 -2.34378,-2.79805 -4.54144,-4.67445 -2.05301,-1.75321 -4.3946,-3.61346 -5.9513,-5.6859 -1.58569,-2.11118 -2.23856,-4.30808 -1.65693,-6.49784 0.5687,-2.14656 2.26683,-3.90038 4.37658,-4.63522 2.14836,-0.74844 4.28206,-0.31183 5.88284,0.86389 1.60822,1.18062 2.32734,2.79903 2.57398,3.74141 0.24835,0.94985 -0.002,0.95195 0.23702,-0.003 0.23724,-0.94644 0.94019,-2.57669 2.53651,-3.78405 1.58896,-1.2023 3.71812,-1.67447 5.87375,-0.96191 2.1169,0.6996 3.83236,2.42494 4.42239,4.56183 0.6034,2.1799 -0.0276,4.38751 -1.59208,6.52494 -1.53592,2.09823 -3.8588,3.99738 -5.89418,5.78469 -2.17877,1.91287 -3.57001,3.32001 -4.49451,4.74978 -0.84118,1.3014 -0.87598,2.08114 -0.87598,2.08114 z"
       style="fill:#000000;fill-opacity:1;stroke:#000000;stroke-width:0.93931103;stroke-linejoin:round;stroke-miterlimit:4;stroke-dasharray:none" />
    <path
       d="m 419.80586,415.68268 h 30.47372 l 4.21649,-6.92247 6.89971,13.32573 7.66634,-13.49879 6.70806,13.32572 7.28302,-13.15266 7.28303,13.2392 4.02481,-6.4898 h 30.66537"
       style="fill:none;fill-rule:evenodd;stroke:#000000;stroke-width:4;stroke-linecap:butt;stroke-linejoin:miter;stroke-miterlimit:5;stroke-dasharray:none;stroke-opacity:1"
       id="path4178" />
    <path
       id="path6595"
       d="m 376.04681,454.77806 221.81318,0.16074 v 86.63572"
       style="fill:none;fill-rule:evenodd;stroke:#000000;stroke-width:4;stroke-linecap:butt;stroke-linejoin:miter;stroke-miterlimit:4;stroke-dasharray:none;stroke-opacity:1" />
    <path
       id="path6597"
       d="m 597.77045,452.9388 -0.32148,-37.29034 -76.6702,-0.16073"
       style="fill:none;fill-rule:evenodd;stroke:#000000;stroke-width:4;stroke-linecap:butt;stroke-linejoin:miter;stroke-miterlimit:4;stroke-dasharray:none;stroke-opacity:1" />
    <path
       id="path6599"
       d="m 376.66091,520.68952 -0.37076,-105.01347 48.27541,0.039"
       style="fill:none;fill-rule:evenodd;stroke:#000000;stroke-width:4;stroke-linecap:butt;stroke-linejoin:miter;stroke-miterlimit:4;stroke-dasharray:none;stroke-opacity:1" />
    <path
       id="path6601"
       d="m 395.529,541.50333 66.0284,-0.64293"
       style="fill:none;fill-rule:evenodd;stroke:#000000;stroke-width:4;stroke-linecap:butt;stroke-linejoin:miter;stroke-miterlimit:4;stroke-dasharray:none;stroke-opacity:1" />
    <path
       id="path6603"
       d="m 355.93188,542.16267 -56.39801,-0.24375 0.0357,37.85861"
       style="fill:none;fill-rule:evenodd;stroke:#000000;stroke-width:4;stroke-linecap:butt;stroke-linejoin:miter;stroke-miterlimit:4;stroke-dasharray:none;stroke-opacity:1" />
    <rect
       y="531.86926"
       x="541.20343"
       height="15.911873"
       width="3.7578979"
       id="rect6605"
       style="fill:#000000;fill-opacity:1;stroke:none;stroke-width:2;stroke-linecap:round;stroke-linejoin:round;stroke-miterlimit:4;stroke-dasharray:none;stroke-opacity:1" />
    <rect
       y="531.82092"
       x="551.33911"
       height="15.911873"
       width="3.7578979"
       id="rect6605-5"
       style="fill:#000000;fill-opacity:1;stroke:none;stroke-width:2;stroke-linecap:round;stroke-linejoin:round;stroke-miterlimit:4;stroke-dasharray:none;stroke-opacity:1" />
    <rect
       y="526.263"
       x="534.73627"
       height="3.3947992"
       width="26.807983"
       id="rect6626"
       style="fill:#000000;fill-opacity:1;stroke:none;stroke-width:2;stroke-linecap:round;stroke-linejoin:round;stroke-miterlimit:4;stroke-dasharray:none;stroke-opacity:1" />
    <ellipse
       ry="19.32156"
       rx="20.003498"
       cy="535.12079"
       cx="548.46094"
       id="path6628"
       style="fill:none;fill-opacity:1;stroke:#000000;stroke-width:2;stroke-linecap:round;stroke-linejoin:round;stroke-miterlimit:4;stroke-dasharray:none;stroke-opacity:1" />
    <path
       id="path6636"
       d="M 528.72879,536.80354 H 485.08481"
       style="fill:none;fill-rule:evenodd;stroke:#000000;stroke-width:4;stroke-linecap:butt;stroke-linejoin:miter;stroke-miterlimit:4;stroke-dasharray:none;stroke-opacity:1" />
    <path
       id="path6638"
       d="m 568.73579,535.89429 h 29.096"
       style="fill:none;fill-rule:evenodd;stroke:#000000;stroke-width:4;stroke-linecap:butt;stroke-linejoin:miter;stroke-miterlimit:4;stroke-dasharray:none;stroke-opacity:1" />
    <rect
       y="458.21078"
       x="283.60629"
       height="2.8193169"
       width="28.932167"
       id="rect6640"
       style="fill:#000000;fill-opacity:1;stroke:none;stroke-width:4;stroke-linecap:round;stroke-linejoin:round;stroke-miterlimit:4;stroke-dasharray:none;stroke-opacity:1" />
    <rect
       y="474.93396"
       x="276.85544"
       height="2.8193169"
       width="44.362648"
       id="rect6640-7"
       style="fill:#000000;fill-opacity:1;stroke:none;stroke-width:4;stroke-linecap:round;stroke-linejoin:round;stroke-miterlimit:4;stroke-dasharray:none;stroke-opacity:1" />
    <rect
       y="491.89206"
       x="271.06903"
       height="2.8193169"
       width="58.507256"
       id="rect6640-7-0"
       style="fill:#000000;fill-opacity:1;stroke:none;stroke-width:4;stroke-linecap:round;stroke-linejoin:round;stroke-miterlimit:4;stroke-dasharray:none;stroke-opacity:1" />
    <path
       id="path6672"
       d="M 299.60852,540.8604 297.67971,439.91933"
       style="fill:none;fill-rule:evenodd;stroke:#000000;stroke-width:4;stroke-linecap:butt;stroke-linejoin:miter;stroke-miterlimit:4;stroke-dasharray:none;stroke-opacity:1" />
    <ellipse
       ry="19.321562"
       rx="20.0035"
       cy="540.34552"
       cx="376.32318"
       id="path6628-5"
       style="fill:none;fill-opacity:1;stroke:#000000;stroke-width:2;stroke-linecap:round;stroke-linejoin:round;stroke-miterlimit:4;stroke-dasharray:none;stroke-opacity:1" />
  </g>
</svg>
